<svg width="16" height="16" viewBox="0 0 16 16" fill="none" xmlns="http://www.w3.org/2000/svg">
<path fill-rule="evenodd" clip-rule="evenodd" d="M10.1998 1.33333C10.6226 1.33272 10.9978 1.33218 11.3486 1.46764C11.6994 1.60309 11.9769 1.85556 12.2896 2.14019C12.7414 2.55135 13.1938 2.96193 13.6468 3.37169C14.0048 3.69539 14.3226 3.98284 14.4955 4.37329C14.6684 4.76373 14.6677 5.19226 14.667 5.67483C14.6653 6.68675 14.6668 7.69868 14.6668 8.71061C14.6669 9.30161 14.6669 9.81081 14.6121 10.2186C14.5533 10.6556 14.4208 11.0745 14.081 11.4143C13.7413 11.7541 13.3224 11.8865 12.8854 11.9453C12.4776 12.0001 11.9684 12.0001 11.3774 12.0001H8.62296C8.03196 12.0001 7.52276 12.0001 7.11496 11.9453C6.67796 11.8865 6.25906 11.7541 5.91928 11.4143C5.57951 11.0745 5.44702 10.6556 5.38826 10.2186C5.33344 9.81081 5.33346 9.30161 5.3335 8.71061L5.3335 4.66675C5.3335 4.05705 5.33208 3.53272 5.38826 3.11489C5.44702 2.67787 5.57951 2.25897 5.91928 1.9192C6.25906 1.57943 6.67796 1.44693 7.11496 1.38817C7.52276 1.33335 8.03196 1.33338 8.62296 1.33341C8.6375 1.33341 8.65216 1.33341 8.66683 1.33341C9.17783 1.33341 9.68876 1.33407 10.1998 1.33333Z" fill="#dae8f8"/>
<path d="M10.6564 12.6665H8.5877C8.02517 12.6666 7.47856 12.6667 7.02616 12.6059C6.51565 12.5372 5.93238 12.37 5.44789 11.8855C4.9634 11.401 4.79618 10.8177 4.72754 10.3073C4.66672 9.85479 4.66678 9.30819 4.66684 8.74572V4.58736C4.66681 4.3884 4.66679 4.19143 4.66946 3.99991C4.15776 3.99962 3.64299 3.98333 3.13398 4.04618C2.73348 4.09564 2.3457 4.20658 2.01622 4.49499C1.94959 4.55331 1.88691 4.61599 1.82859 4.68261C1.54018 5.0121 1.42924 5.39988 1.37978 5.80038C1.33345 6.1756 1.33347 6.64083 1.3335 7.18059V11.3771C1.33346 11.9681 1.33344 12.4773 1.38826 12.8851C1.44702 13.3221 1.57951 13.741 1.91928 14.0808C2.25906 14.4206 2.67796 14.5531 3.11497 14.6118C3.52274 14.6667 4.03196 14.6666 4.62294 14.6666H7.9361C8.26756 14.6666 8.55357 14.6666 8.7895 14.6484C9.0383 14.6292 9.2863 14.5869 9.52716 14.4721C9.9413 14.2747 10.275 13.9411 10.4723 13.5269C10.6005 13.2579 10.6416 12.9613 10.6564 12.6665Z" fill="#dae8f8"/>
</svg>
