<svg width="14" height="14" viewBox="0 0 14 14" fill="none" xmlns="http://www.w3.org/2000/svg">
<path d="M6.13764 2.11379C6.60046 1.60563 7.39997 1.60563 7.86279 2.11379L8.29183 2.58489C8.52569 2.8417 8.86187 2.98095 9.20883 2.96473L9.84537 2.93499C10.5319 2.9029 11.0973 3.46829 11.0652 4.15485L11.0355 4.79134C11.0193 5.13832 11.1585 5.47448 11.4153 5.70837L11.8864 6.1374C12.3946 6.60021 12.3946 7.39973 11.8864 7.86255L11.4153 8.29159C11.1585 8.52545 11.0193 8.86162 11.0355 9.20859L11.0652 9.84512C11.0973 10.5316 10.5319 11.0971 9.84537 11.0649L9.20883 11.0352C8.86187 11.019 8.52569 11.1583 8.29183 11.415L7.86279 11.8861C7.39997 12.3943 6.60046 12.3943 6.13764 11.8861L5.70861 11.415C5.47472 11.1583 5.13856 11.019 4.79158 11.0352L4.15509 11.0649C3.46853 11.0971 2.90315 10.5316 2.93523 9.84512L2.96498 9.20859C2.9812 8.86162 2.84195 8.52545 2.58513 8.29159L2.11403 7.86255C1.60587 7.39973 1.60587 6.60021 2.11403 6.1374L2.58513 5.70837C2.84195 5.47448 2.9812 5.13832 2.96498 4.79133L2.93523 4.15485C2.90315 3.46829 3.46853 2.9029 4.15509 2.93499L4.79158 2.96473C5.13856 2.98095 5.47472 2.8417 5.70862 2.58489L6.13764 2.11379Z" stroke="white"/>
<path d="M7 8.75C7.9665 8.75 8.75 7.9665 8.75 7C8.75 6.0335 7.9665 5.25 7 5.25C6.0335 5.25 5.25 6.0335 5.25 7C5.25 7.9665 6.0335 8.75 7 8.75Z" stroke="white"/>
</svg>
