<svg width="12" height="8" viewBox="0 0 12 8" fill="none" xmlns="http://www.w3.org/2000/svg">
<g clip-path="url(#clip0_126_5)">
<path fill-rule="evenodd" clip-rule="evenodd" d="M4.19987 6.56H3.59987C2.19767 6.56 1.07206 5.27047 1.21186 3.74407C1.33306 2.41415 2.45386 1.44 3.70666 1.44H4.19987C4.53107 1.44 4.79987 1.15328 4.79987 0.800004C4.79987 0.446724 4.53107 0.160004 4.19987 0.160004H3.75106C1.77946 0.160004 0.0604644 1.78045 0.00166443 3.88157C-0.0595356 6.05629 1.57487 7.84 3.59987 7.84H4.19987C4.53107 7.84 4.79987 7.55328 4.79987 7.2C4.79987 6.84672 4.53107 6.56 4.19987 6.56ZM8.24866 0.160004H7.79987C7.46867 0.160004 7.19987 0.446724 7.19987 0.800004C7.19987 1.15328 7.46867 1.44 7.79987 1.44H8.29306C9.54586 1.44 10.6667 2.41415 10.7879 3.74407C10.9277 5.27047 9.80207 6.56 8.39987 6.56H7.79987C7.46867 6.56 7.19987 6.84672 7.19987 7.2C7.19987 7.90656 7.79987 7.84 8.39987 7.84C10.4249 7.84 12.0593 6.05629 11.9981 3.88157C11.9393 1.78045 10.2203 0.160004 8.24866 0.160004ZM2.99987 3.36H8.99987C9.33107 3.36 9.59987 3.64672 9.59987 4C9.59987 4.86144 9.12647 4.64 2.99987 4.64C2.66867 4.64 2.39987 4.35328 2.39987 4C2.39987 3.64672 2.66867 3.36 2.99987 3.36Z" fill="white"/>
</g>
<defs>
<clipPath id="clip0_126_5">
<rect width="12" height="8" fill="white"/>
</clipPath>
</defs>
</svg>
